<svg xmlns="http://www.w3.org/2000/svg" width="860" height="440" viewBox="0 0 860 440">
<rect width="100%" height="100%" fill="#fbfaf7"/>
<text x="430.0" y="30" text-anchor="middle" font-family="Georgia,serif" font-size="22" fill="#1d2b2a">bpftrace P99 Upper Bucket (ms)</text>
<line x1="180" y1="370" x2="820" y2="370" stroke="#9aa4a1"/>
<text x="168" y="76.7913142857143" text-anchor="end" font-family="Arial,sans-serif" font-size="14" fill="#263331">D2C read P99</text>
<rect x="180" y="58.0" width="0.2" height="27.634285714285713" fill="#536f8a" rx="3"/>
<text x="188.15625" y="76.7913142857143" font-family="Arial,sans-serif" font-size="13" fill="#263331">1.02 ms</text>
<text x="168" y="124.1856" text-anchor="end" font-family="Arial,sans-serif" font-size="14" fill="#263331">D2C write P99</text>
<rect x="180" y="105.39428571428572" width="5.0" height="27.634285714285713" fill="#536f8a" rx="3"/>
<text x="193.0" y="124.1856" font-family="Arial,sans-serif" font-size="13" fill="#263331">32.77 ms</text>
<text x="168" y="171.57988571428572" text-anchor="end" font-family="Arial,sans-serif" font-size="14" fill="#263331">Q2D read P99</text>
<rect x="180" y="152.78857142857143" width="0.0" height="27.634285714285713" fill="#536f8a" rx="3"/>
<text x="188.0048828125" y="171.57988571428572" font-family="Arial,sans-serif" font-size="13" fill="#263331">0.03 ms</text>
<text x="168" y="218.97417142857142" text-anchor="end" font-family="Arial,sans-serif" font-size="14" fill="#263331">Q2D write P99</text>
<rect x="180" y="200.18285714285713" width="0.0" height="27.634285714285713" fill="#536f8a" rx="3"/>
<text x="188.01953125" y="218.97417142857142" font-family="Arial,sans-serif" font-size="13" fill="#263331">0.13 ms</text>
<text x="168" y="266.36845714285715" text-anchor="end" font-family="Arial,sans-serif" font-size="14" fill="#263331">VFS read P99</text>
<rect x="180" y="247.57714285714286" width="640.0" height="27.634285714285713" fill="#536f8a" rx="3"/>
<text x="828.0" y="266.36845714285715" font-family="Arial,sans-serif" font-size="13" fill="#263331">4194.30 ms</text>
<text x="168" y="313.7627428571429" text-anchor="end" font-family="Arial,sans-serif" font-size="14" fill="#263331">VFS write P99</text>
<rect x="180" y="294.9714285714286" width="160.0" height="27.634285714285713" fill="#536f8a" rx="3"/>
<text x="348.0" y="313.7627428571429" font-family="Arial,sans-serif" font-size="13" fill="#263331">1048.58 ms</text>
<text x="168" y="361.15702857142855" text-anchor="end" font-family="Arial,sans-serif" font-size="14" fill="#263331">fsync P99</text>
<rect x="180" y="342.36571428571426" width="320.0" height="27.634285714285713" fill="#536f8a" rx="3"/>
<text x="508.0" y="361.15702857142855" font-family="Arial,sans-serif" font-size="13" fill="#263331">2097.15 ms</text>
</svg>